<svg width="284" height="76" viewBox="0 0 284 76" fill="none" xmlns="http://www.w3.org/2000/svg">
<g clip-path="url(#clip0_108_45)">
<path d="M28.6659 49.7663C28.0194 49.637 27.3409 49.556 26.6299 49.5237C25.9189 49.4914 25.3048 49.4752 24.7877 49.4752C22.0727 49.4752 19.8751 49.8954 18.1942 50.7357C16.5134 51.5761 15.6732 53.0306 15.6732 55.0991C15.6732 56.3919 15.9803 57.41 16.5944 58.1534C17.2084 58.8968 17.9679 59.4463 18.8729 59.8018C19.7778 60.1574 20.7313 60.3675 21.7332 60.4322C22.7351 60.4969 23.5916 60.5291 24.3026 60.5291C25.5954 60.5291 27.0498 60.3675 28.6659 60.0443V49.7663ZM23.6238 39.1004C24.141 39.1004 24.8357 39.1167 25.7084 39.149C26.581 39.1813 27.5668 39.2298 28.6657 39.2944C28.601 36.7734 27.7122 35.1412 25.9991 34.3978C24.2861 33.6544 22.0722 33.2828 19.3572 33.2828C17.8705 33.2828 16.1574 33.4605 14.2182 33.8161C12.2789 34.1716 10.1781 34.7049 7.91564 35.4159L6.36424 30.083C6.17031 29.372 5.89562 28.3377 5.54006 26.9802C5.1845 25.6227 4.94209 24.5561 4.81284 23.7804C8.04489 22.6816 11.0994 21.8897 13.9758 21.4049C16.8522 20.9201 19.4542 20.6776 21.7813 20.6776C28.6331 20.6776 33.9336 22.3098 37.6831 25.5743C41.4327 28.8387 43.3069 34.0585 43.3069 41.2337V69.6437C40.7859 70.3547 37.877 71.0497 34.5803 71.7284C31.2836 72.4071 27.7285 72.7465 23.9144 72.7465C20.553 72.7465 17.4989 72.4556 14.7515 71.8738C12.0041 71.2921 9.64496 70.3224 7.67323 68.965C5.7015 67.6075 4.18258 65.8299 3.11599 63.632C2.04941 61.4342 1.51611 58.7514 1.51611 55.5841C1.51611 52.4169 2.17866 49.7664 3.50384 47.6332C4.82903 45.5 6.54207 43.8032 8.64286 42.5427C10.7436 41.2822 13.1031 40.3933 15.7211 39.8762C18.3391 39.3591 20.9734 39.1004 23.6238 39.1004ZM45.8283 21.2593H62.6997L72.2021 53.3539L72.396 54.5175L72.5899 53.3539L81.8983 21.2593H98.5758L79.5712 72.0677H64.4451L45.8283 21.2593ZM123.689 20.7745C127.051 20.7745 130.186 21.2432 133.094 22.1806C136.003 23.1179 138.508 24.6208 140.609 26.6893C142.71 28.7578 144.358 31.4405 145.554 34.7372C146.75 38.0339 147.348 42.0094 147.348 46.6636C147.348 51.3178 146.75 55.2933 145.554 58.59C144.358 61.8867 142.71 64.5692 140.609 66.6379C138.508 68.7066 136.003 70.2093 133.094 71.1466C130.186 72.084 127.05 72.5526 123.689 72.5526C120.263 72.5526 117.112 72.084 114.235 71.1466C111.359 70.2093 108.87 68.7064 106.769 66.6379C104.668 64.5694 103.02 61.8867 101.824 58.59C100.628 55.2933 100.03 51.3178 100.03 46.6636C100.03 42.0741 100.628 38.1469 101.824 34.8827C103.02 31.6184 104.668 28.9355 106.769 26.8348C108.87 24.7341 111.359 23.1987 114.235 22.229C117.112 21.2594 120.263 20.7745 123.689 20.7745ZM123.689 59.8504C126.598 59.8504 128.877 58.8808 130.525 56.9415C132.173 55.0023 132.998 51.5761 132.998 46.6635C132.998 41.7509 132.173 38.3087 130.525 36.337C128.877 34.3653 126.598 33.3796 123.689 33.3796C120.845 33.3796 118.566 34.3977 116.853 36.434C115.14 38.4702 114.284 41.8798 114.284 46.6635C114.284 51.5761 115.124 55.0023 116.805 56.9415C118.485 58.8808 120.78 59.8504 123.689 59.8504ZM172.267 21.3563V71.9707H157.626V36.9672L158.111 33.4766H149.772L156.365 21.3563H172.267ZM171.879 17.1869H157.335V4H171.879V17.1869ZM225.015 4L225.015 70.6132C222.688 71.1303 220.425 71.5182 218.228 71.7768C216.03 72.0354 214.026 72.2293 212.216 72.3586C210.406 72.4878 208.855 72.5525 207.562 72.5525H204.944C200.548 72.5525 196.847 71.8737 193.842 70.5163C190.836 69.1588 188.412 67.3165 186.569 64.9894C184.727 62.6623 183.386 59.9634 182.545 56.893C181.705 53.8227 181.285 50.542 181.285 47.0513C181.285 42.5911 181.851 38.7611 182.982 35.5613C184.113 32.3615 185.697 29.7275 187.733 27.6588C189.769 25.5902 192.193 24.0551 195.005 23.0532C197.817 22.0513 200.936 21.5503 204.362 21.5503C204.944 21.5503 205.606 21.5988 206.35 21.6958C207.093 21.7927 207.804 21.9059 208.483 22.0351C209.162 22.1644 209.792 22.3098 210.374 22.4715C210.955 22.6331 211.408 22.8108 211.731 23.0047V17.284L212.022 16.0234H203.295L209.792 4.0001L225.015 4ZM206.495 59.5595C207.465 59.5595 208.402 59.5272 209.307 59.4625C210.212 59.3979 211.02 59.3009 211.731 59.1717V34.3493C211.278 34.2846 210.761 34.1876 210.18 34.0584C209.662 33.9291 209.064 33.8322 208.386 33.7675C207.707 33.7028 206.948 33.6705 206.107 33.6705C203.069 33.6705 200.516 34.7048 198.447 36.7733C196.378 38.8418 195.344 42.2677 195.344 47.0513C195.344 49.4431 195.635 51.447 196.217 53.063C196.799 54.679 197.591 55.9719 198.593 56.9415C199.594 57.9111 200.774 58.5899 202.132 58.9777C203.489 59.3656 204.944 59.5595 206.495 59.5595ZM244.698 59.4625C250.387 59.2039 255.057 57.7655 258.709 55.1475C262.362 52.5295 264.963 49.2813 266.515 45.4028C265.222 46.3724 263.671 47.1804 261.861 47.8269C260.051 48.4733 257.917 48.7965 255.461 48.7965C252.682 48.7965 250.047 48.3924 247.559 47.5844C245.07 46.7765 242.872 45.4998 240.965 43.7544C239.058 42.0091 237.555 39.779 236.456 37.064C235.358 34.3491 234.808 31.0848 234.808 27.2708C234.808 23.3923 235.487 19.9986 236.844 17.0897C238.202 14.1809 239.996 11.7568 242.226 9.81755C244.456 7.8783 247.042 6.44006 249.983 5.50272C252.924 4.56539 255.946 4.09677 259.049 4.09677C267.194 4.09677 273.351 6.26223 277.52 10.5933C281.689 14.9243 283.774 21.8089 283.774 31.2463C283.774 36.9995 282.998 42.332 281.447 47.2451C279.896 52.1582 277.536 56.4405 274.369 60.0926C271.201 63.7447 267.178 66.6701 262.297 68.8677C257.416 71.0654 251.68 72.3261 245.086 72.6492L244.698 59.4625ZM258.952 36.2885C261.731 36.2885 263.929 35.6261 265.545 34.3009C267.161 32.9757 267.969 30.6648 267.969 27.3681C267.969 23.8127 267.194 21.1785 265.642 19.4656C264.091 17.7528 261.99 16.8961 259.34 16.8961C256.754 16.8961 254.605 17.6718 252.892 19.2232C251.179 20.7746 250.322 23.3279 250.322 26.8832C250.322 28.6932 250.532 30.1962 250.952 31.392C251.373 32.5878 251.97 33.5575 252.746 34.3009C253.522 35.0443 254.443 35.5614 255.51 35.8523C256.576 36.1432 257.724 36.2885 258.952 36.2885Z" fill="black"/>
</g>
<defs>
<clipPath id="clip0_108_45">
<rect width="283" height="76" fill="white" transform="translate(0.258057)"/>
</clipPath>
</defs>
</svg>
